PathFileType	4	(X/Y/Z)	/Users/itak/Documents/Research/Walk-IL/dataset/trc/00386_00012.trc
DataRate	CameraRate	NumFrames	NumMarkers	Units	OrigDataRate	OrigDataStartFrame	OrigNumFrames
100.000000	100.000000	4	54	mm	100.000000	72	578
Frame#	Time	RPSI			LPSI			L3			STRN			T10			C7			CLAV			RBAK			LBAK			LSHO			LUPA			LAEL			LAOL			LWTS			LWPS			LFRA			LIFD			LHPS			LHTS			RSHO			RUPA			RAEL			RAOL			RWTS			RWPS			RFRA			RIFD			RHTS			RHPS			RBHD			LFHD			RFHD			LBHD			RHIP			RASI			LASI			LKNE			LTHI			LANK			LTIP			LTOE			LMT1			LMT5			LHEE			RKNE			RTHI			RANK			RTIP			RTOE			RMT1			RMT5			RHEE			LHIP			*53			
		X1	Y1	Z1	X2	Y2	Z2	X3	Y3	Z3	X4	Y4	Z4	X5	Y5	Z5	X6	Y6	Z6	X7	Y7	Z7	X8	Y8	Z8	X9	Y9	Z9	X10	Y10	Z10	X11	Y11	Z11	X12	Y12	Z12	X13	Y13	Z13	X14	Y14	Z14	X15	Y15	Z15	X16	Y16	Z16	X17	Y17	Z17	X18	Y18	Z18	X19	Y19	Z19	X20	Y20	Z20	X21	Y21	Z21	X22	Y22	Z22	X23	Y23	Z23	X24	Y24	Z24	X25	Y25	Z25	X26	Y26	Z26	X27	Y27	Z27	X28	Y28	Z28	X29	Y29	Z29	X30	Y30	Z30	X31	Y31	Z31	X32	Y32	Z32	X33	Y33	Z33	X34	Y34	Z34	X35	Y35	Z35	X36	Y36	Z36	X37	Y37	Z37	X38	Y38	Z38	X39	Y39	Z39	X40	Y40	Z40	X41	Y41	Z41	X42	Y42	Z42	X43	Y43	Z43	X44	Y44	Z44	X45	Y45	Z45	X46	Y46	Z46	X47	Y47	Z47	X48	Y48	Z48	X49	Y49	Z49	X50	Y50	Z50	X51	Y51	Z51	X52	Y52	Z52	X53	Y53	Z53	X54	Y54	Z54	

73	0.72	1000.552551269531	981.5938110351562	-30.34991264343262	985.4810180664062	973.8207397460938	-161.8499145507812	998.5805053710938	1044.441650390625	-94.85520172119141	1233.8125	1211.468383789062	-100.2450408935547	995.6796875	1143.808471679688	-100.5886688232422	1007.844543457031	1396.163818359375	-113.1247406005859	1172.286010742188	1327.649536132812	-103.3498153686523	979.412841796875	1247.763305664062	-43.99065780639648	1000.454467773438	1355.815551757812	-217.3462829589844	1089.52294921875	1376.94091796875	-266.1632995605469	1075.685791015625	1257.934814453125	-335.4014587402344	1106.476318359375	1060.625244140625	-350.3683471679688	1042.691772460938	1039.185302734375	-296.6815795898438	1207.441772460938	856.4734497070312	-283.0670776367188	1166.49658203125	834.7365112304688	-351.5611267089844	1131.746826171875	957.3102416992188	-352.0809326171875	1222.763916015625	679.0430297851562	-278.0098571777344	1186.611694335938	751.73583984375	-337.6973571777344	1235.450561523438	761.5799560546875	-296.29833984375	1071.94775390625	1381.096069335938	49.28116226196289	1065.003662109375	1315.8740234375	109.5071334838867	1082.404541015625	1053.981689453125	144.0587005615234	1059.095458984375	1043.228637695312	53.59320831298828	1217.121337890625	844.3768920898438	106.2048034667969	1177.193969726562	830.1488647460938	167.1687164306641	1111.106689453125	988.9609375	157.5863647460938	1227.602416992188	672.2747192382812	106.958625793457	1242.223754882812	741.0882568359375	124.2844314575195	1186.764770507812	740.9276733398438	165.2366943359375	1016.265686035156	1586.6826171875	-49.35660171508789	1203.460083007812	1602.968627929688	-116.1021728515625	1144.043334960938	1601.871826171875	-5.676985263824463	1079.107788085938	1586.783081054688	-197.2495880126953	1091.206420898438	954.9029541015625	81.68540954589844	1217.839477539062	964.6978759765625	20.10184860229492	1188.50927734375	956.1895751953125	-240.3960266113281	1098.631591796875	465.6210327148438	-259.3061218261719	1097.711669921875	608.0787353515625	-270.251953125	1003.926696777344	31.28319549560547	-214.5148468017578	1046.728515625	235.5166015625	-249.6878967285156	1219.9248046875	31.96430969238281	-153.5626220703125	1140.1640625	33.86170959472656	-122.9424743652344	1131.592651367188	30.81937599182129	-226.9022979736328	967.162353515625	28.57245635986328	-157.3837585449219	1103.400390625	466.6031494140625	58.91184234619141	1157.193969726562	728.0120849609375	79.77980804443359	1047.401733398438	45.25202560424805	22.9346923828125	1107.8388671875	341.1424255371094	43.78692626953125	1225.016723632812	26.60873985290527	-43.91489410400391	1148.453369140625	33.38760757446289	-70.78361511230469	1130.884033203125	35.30237579345703	26.79155540466309	970.9401245117188	32.36755752563477	-29.73908805847168	1071.791870117188	957.5430297851562	-276.7052001953125	nan	nan	nan	
74	0.73	1000.544128417969	981.5924072265625	-30.35415458679199	985.5213623046875	973.8707885742188	-161.8323364257812	998.5599365234375	1044.449340820312	-94.84922027587891	1233.816650390625	1211.410278320312	-100.1359405517578	995.60009765625	1143.821533203125	-100.5928268432617	1007.9072265625	1396.183837890625	-113.0503005981445	1172.333740234375	1327.611694335938	-103.271484375	979.4473876953125	1247.76318359375	-43.93632507324219	1000.520568847656	1355.822998046875	-217.3049926757812	1089.611938476562	1376.926391601562	-266.0769653320312	1075.784301757812	1257.958984375	-335.3354797363281	1106.525268554688	1060.611572265625	-350.3185119628906	1042.753051757812	1039.183837890625	-296.6074829101562	1207.513305664062	856.4614868164062	-282.9658203125	1166.567016601562	834.720947265625	-351.4547729492188	1131.774780273438	957.2652587890625	-352.0203247070312	1222.766357421875	678.9309692382812	-277.8500061035156	1186.726196289062	751.7449951171875	-337.6192321777344	1235.4296875	761.3938598632812	-296.1031188964844	1072.01220703125	1381.071166992188	49.36656188964844	1065.044799804688	1315.851196289062	109.5729370117188	1082.399291992188	1053.959838867188	144.1067352294922	1058.998291015625	1043.216674804688	53.68230056762695	1217.114501953125	844.3328857421875	106.2855987548828	1177.188232421875	830.1220703125	167.2610778808594	1111.150024414062	988.9464111328125	157.6918182373047	1227.535400390625	672.1168823242188	107.0588302612305	1242.18408203125	741.0945434570312	124.3642425537109	1186.700561523438	740.9189453125	165.2902984619141	1016.513366699219	1586.715698242188	-49.05110168457031	1203.57373046875	1602.922973632812	-115.9914398193359	1144.202270507812	1601.93505859375	-5.570686340332031	1079.194091796875	1586.797241210938	-197.0771484375	1091.187255859375	954.88916015625	81.73527526855469	1217.806518554688	964.6951904296875	20.17644500732422	1188.608520507812	956.2604370117188	-240.3971099853516	1098.7451171875	465.5875854492188	-259.2591857910156	1097.8046875	608.0689086914062	-270.2002258300781	1003.915161132812	31.30043792724609	-214.4965515136719	1046.787963867188	235.4774627685547	-249.6764221191406	1219.932739257812	31.94559669494629	-153.5476531982422	1140.154174804688	33.7851676940918	-122.8976898193359	1131.639892578125	30.87484359741211	-226.8665924072266	967.163330078125	28.56574440002441	-157.3655395507812	1103.36181640625	466.5986022949219	58.95117568969727	1157.196899414062	728.0526733398438	79.90499877929688	1047.368530273438	45.25941848754883	22.94073486328125	1107.780639648438	341.1290283203125	43.8293571472168	1225.019653320312	26.62915229797363	-43.91056060791016	1148.456298828125	33.38564682006836	-70.77719879150391	1130.879272460938	35.30050659179688	26.79720497131348	970.9891967773438	32.36225128173828	-29.74002647399902	1071.772094726562	957.61181640625	-276.7214965820312	nan	nan	nan	
75	0.74	1000.521850585938	981.5881958007812	-30.36453628540039	985.5657958984375	973.9005737304688	-161.8224792480469	998.5183715820312	1044.449340820312	-94.84518432617188	1233.818969726562	1211.359985351562	-100.0339660644531	995.50634765625	1143.835205078125	-100.5978088378906	1007.972839355469	1396.197509765625	-112.9692153930664	1172.376953125	1327.579345703125	-103.1954879760742	979.4638671875	1247.761352539062	-43.88692092895508	1000.58056640625	1355.834106445312	-217.2673034667969	1089.689819335938	1376.910522460938	-265.9903564453125	1075.88134765625	1257.98046875	-335.2638854980469	1106.586059570312	1060.607666015625	-350.2675170898438	1042.818237304688	1039.1806640625	-296.5287475585938	1207.58251953125	856.4457397460938	-282.8610229492188	1166.636596679688	834.7098999023438	-351.3541870117188	1131.81005859375	957.2275390625	-351.9606018066406	1222.780639648438	678.8553466796875	-277.7269287109375	1186.835693359375	751.7579956054688	-337.5448913574219	1235.409545898438	761.2062377929688	-295.9136352539062	1072.060546875	1381.03466796875	49.45085906982422	1065.071655273438	1315.822021484375	109.6363754272461	1082.388671875	1053.933227539062	144.1488189697266	1058.902709960938	1043.199584960938	53.7647590637207	1217.104248046875	844.2837524414062	106.3574981689453	1177.183471679688	830.091064453125	167.3504028320312	1111.189819335938	988.9232788085938	157.7898559570312	1227.485229492188	671.9813842773438	107.1452255249023	1242.159790039062	741.109130859375	124.4281311035156	1186.62158203125	740.909912109375	165.31494140625	1016.773681640625	1586.7568359375	-48.73882675170898	1203.688110351562	1602.874755859375	-115.8941955566406	1144.379638671875	1602.02490234375	-5.438612461090088	1079.274291992188	1586.8017578125	-196.8989410400391	1091.224365234375	954.866455078125	81.81398010253906	1217.767822265625	964.68896484375	20.25864219665527	1188.707885742188	956.3240966796875	-240.3928985595703	1098.855590820312	465.5526428222656	-259.2120971679688	1097.906982421875	608.0618896484375	-270.1496887207031	1003.905090332031	31.312255859375	-214.4839477539062	1046.8427734375	235.4433746337891	-249.6698608398438	1219.936157226562	31.92531967163086	-153.5333404541016	1140.150512695312	33.72856140136719	-122.8593368530273	1131.683227539062	30.92689323425293	-226.8350677490234	967.1666259765625	28.5611686706543	-157.3524322509766	1103.329956054688	466.5964965820312	58.99427032470703	1157.199096679688	728.0947875976562	80.03265380859375	1047.32373046875	45.26798629760742	22.94636917114258	1107.728271484375	341.1145935058594	43.86603927612305	1225.023803710938	26.64827728271484	-43.91012191772461	1148.460205078125	33.38379669189453	-70.77361297607422	1130.871826171875	35.29417419433594	26.80692672729492	971.0294189453125	32.35770797729492	-29.73971176147461	1071.752807617188	957.6744995117188	-276.7334289550781	nan	nan	nan	
76	0.75	1000.484313964844	981.5809936523438	-30.38155555725098	985.6060180664062	973.9111328125	-161.8204956054688	998.468017578125	1044.442993164062	-94.84168243408203	1233.818237304688	1211.319946289062	-99.93901062011719	995.412841796875	1143.848754882812	-100.6007537841797	1008.039306640625	1396.204956054688	-112.8835067749023	1172.414672851562	1327.553466796875	-103.1220626831055	979.4633178710938	1247.757690429688	-43.84354400634766	1000.636291503906	1355.85009765625	-217.2310791015625	1089.756713867188	1376.896606445312	-265.9064636230469	1075.973754882812	1257.996948242188	-335.1860046386719	1106.658447265625	1060.612426757812	-350.2160949707031	1042.884033203125	1039.17578125	-296.4504699707031	1207.648193359375	856.4260864257812	-282.7528076171875	1166.70703125	834.7059936523438	-351.2614440917969	1131.85302734375	957.1973876953125	-351.902587890625	1222.805053710938	678.8152465820312	-277.6373596191406	1186.938110351562	751.7741088867188	-337.4754333496094	1235.395385742188	761.030029296875	-295.7389831542969	1072.087768554688	1380.988403320312	49.53250885009766	1065.082641601562	1315.787109375	109.6979064941406	1082.372680664062	1053.902099609375	144.1856231689453	1058.820678710938	1043.17919921875	53.8391227722168	1217.089965820312	844.2315063476562	106.4207153320312	1177.178344726562	830.0568237304688	167.4337005615234	1111.222290039062	988.8924560546875	157.8766479492188	1227.451904296875	671.8727416992188	107.2145385742188	1242.149780273438	741.13427734375	124.4819183349609	1186.532836914062	740.8971557617188	165.3187561035156	1017.024291992188	1586.802612304688	-48.44536972045898	1203.8017578125	1602.825439453125	-115.8097076416016	1144.581298828125	1602.1357421875	-5.266674041748047	1079.347412109375	1586.796752929688	-196.7219696044922	1091.315551757812	954.83544921875	81.91736602783203	1217.72314453125	964.6771240234375	20.34890747070312	1188.805786132812	956.3789672851562	-240.3815155029297	1098.960083007812	465.5196228027344	-259.16796875	1098.015380859375	608.0576782226562	-270.1029052734375	1003.897521972656	31.31912994384766	-214.4768371582031	1046.892578125	235.4181671142578	-249.6687469482422	1219.935913085938	31.90544319152832	-153.5209045410156	1140.151123046875	33.68988418579102	-122.8279800415039	1131.720336914062	30.97163772583008	-226.8096008300781	967.1721801757812	28.56178855895996	-157.3460388183594	1103.3037109375	466.5966186523438	59.04165649414062	1157.201049804688	728.1339721679688	80.15057373046875	1047.272705078125	45.27438735961914	22.95361137390137	1107.681518554688	341.0998229980469	43.89722442626953	1225.028076171875	26.66396903991699	-43.91456985473633	1148.464599609375	33.38199996948242	-70.77313232421875	1130.861083984375	35.28125381469727	26.8215503692627	971.0592651367188	32.35402679443359	-29.73883247375488	1071.732543945312	957.7290649414062	-276.7390747070312	nan	nan	nan	
